<?xml version="1.0" encoding="utf-8"?>

<!DOCTYPE svg PUBLIC "-//W3C//DTD SVG 1.1//EN" "http://www.w3.org/Graphics/SVG/1.1/DTD/svg11.dtd">
<svg version="1.1" id="Layer_1" xmlns="http://www.w3.org/2000/svg" xmlns:xlink="http://www.w3.org/1999/xlink" x="0px" y="0px"
	 viewBox="0 0 2605.455 486.001" enable-background="new 0 0 2605.455 486.001" xml:space="preserve">
	 <defs>
		<linearGradient id="skyline-gradient" x1="0%" y1="0%" x2="0%" y2="100%">
          <stop offset="0%" stop-color="#b9c4dc" />
          <stop offset="100%" stop-color="#8195c0" />
        </linearGradient>
	 </defs>
<path fill="url(#skyline-gradient)" d="M2582.521,459.426V118.714l-146.16,6.548v42.874h-2.962v4.989h-18.241v27.361h-13.33v1.715l-12.005-2.962h-27.361v-3.976
	h-30.012v5.223h-4.755v-43.341l-16.838-4.131l-24.945-2.494v3.664h-4.054v-5.691h-25.88v-8.964h2.806v-3.586h-2.884v-2.339h-4.053
	v21.281h-12.005l-15.59,1.871v105.391h-11.381v6.314l-28.531,0.312l-0.312-7.405l-12.784-0.624l-1.403-142.496l-7.717-1.169
	l0.234-4.599l4.287,0.702l0.156-2.884l-10.913-0.857l-0.312,6.08l-7.405-1.325l-6.704-3.508l-6.314,2.728l-21.047-0.546v-2.962
	h-3.742l-0.078,5.535l-41.938,1.949l1.559,100.168l-7.483-1.949v-5.457l-9.588-3.664h-9.12v6.314h-4.365v3.196h-2.417v5.301h-4.833
	v-24.087h-9.51v-30.089h-9.744v-4.521h-2.65v-24.243l-4.365,7.405l1.637,2.105l1.793-3.04v17.305h-11.225v-23.386h-10.913v-10.913
	h-7.483v-12.238h-13.33v3.898h-2.65v9.9h-4.833v-2.806h-3.352v15.201h-4.443v-2.417h-5.223v24.945h-10.991v-22.762h-1.481v22.606
	h-2.417v5.69h-9.042v29.544h-9.822v60.179h-44.9v-97.83l-0.078-7.717l2.806,0.078l-0.156-2.183l-15.435-1.637v-4.209h-2.494
	l-1.091-5.457v-17.305h-1.247v16.682l-28.375-4.599v13.564h-10.056l3.664,4.054v7.172h-2.183l1.559,58.308l-25.412-2.339v-22.762
	l-6.938-1.715l-8.185-0.234v-1.871h-7.873v-2.806h-5.535v-17.773l6.548,2.417l-0.078-2.417l-7.405-4.833v22.684h-9.666v4.755h-1.793
	v-1.715h-2.494V90.729h-1.091v-4.131l-27.283-5.613l-0.156-1.949l-31.882-7.172l-34.611,1.871v7.405h-26.893v4.989h-2.027
	l0.858,136.494h-5.535l-2.494,3.586l-4.677-1.481l0.468-11.459l-1.403-4.054v-13.018h-3.196v-4.131h-1.481
	c-0.701-4.365-12.005-16.292-12.005-16.292l-5.613-0.312l-6.704,8.029l-3.118,0.078l-6.158-7.172l-3.976,0.078
	c-8.965,4.443-11.537,16.916-11.537,16.916c-3.352,0.078-2.962,4.989-2.962,4.989h-2.728l-0.624,12.55v17.617h-17.149l-5.223,5.067
	h-5.846l-0.858-1.559l-3.43,3.352h-6.314l-0.234-68.208l1.013-0.779l-0.546-18.553l2.339-2.494l-5.379,0.39l-0.78-1.169
	l-63.297,2.417l-5.379,6.86c0,0,1.403-0.078,1.637,0s-0.546,16.76-0.546,16.76l1.949,0.39l-0.312,31.648l-21.359-1.871l0.156-2.728
	l-4.911,0.078l-0.156,2.183l-4.287-0.39l-0.078-2.884l-2.573-0.078l-0.078,2.572l-2.806-0.234l-0.234-5.067l-25.568,1.091v-3.82
	h-2.261v1.247h-2.884v-8.029h-2.183v1.481h-3.352v-6.002l-11.303-15.357l-11.459,15.59v5.379h-3.274v-0.78h-2.261v7.328h-3.586
	v-1.247h-1.637v7.873h-3.82v-1.247h-1.715v7.016h-4.989v2.806h-17.929l-3.43,6.626h-13.797v2.339h-6.938v2.572h-5.145v-59.243
	l-25.412-2.495l-0.156-36.404l-24.477-2.572l-6.782,0.546l-0.468-11.069l-18.708-2.261v-2.105h-4.287V82.856h-2.105v20.657h-4.521
	l-18.475,2.027v12.862l-28.141,1.559v5.69h-2.027v12.55l-35.078,20.579v1.793h-2.339v1.247l2.339,2.339v4.755h-3.664v6.002h-17.071
	l-16.76-2.261l-0.468-4.599l-36.482-3.508l-32.194,1.403l-0.156,5.223l-13.408,2.261l-31.882,1.091l-0.312,71.404h-13.564
	l-2.65-204.858l-5.535,1.247v3.82l-17.929-2.417v-4.521l-11.537-2.495V26.575h-6.314v10.368l-17.617-4.209l-30.557,6.158v3.586
	l-18.553,1.793v-3.118l-5.924-1.325l-2.417,96.349l-36.482,2.65v69.143l-5.379-4.443h-28.219l-8.809,4.911h-3.898v12.94h-11.303
	v2.261h-1.403v6.548h-19.488v3.04h-8.887v-2.962h-4.989v3.43h-2.728v14.109h-2.884v6.704h-4.054v3.898h3.898v3.742h-2.806v2.806
	h2.65v10.446h-3.118v4.053h3.586v3.274h-2.183v2.339h-3.43v-2.806h-4.521v-5.768h-2.962v-5.145h-8.886v-6.236h-2.027v-4.209h-2.183
	V128.38h-5.301v-6.236l-12.94-43.497l1.247-5.301l-44.744-7.795l-3.43,4.677h-7.951v9.354l-12.161,38.041l-2.962,3.43l-9.198,0.624
	l10.757,2.183l-1.091,4.209l-7.016,2.65v12.005h-6.704v41.315h-21.047v14.811h-13.564v29.466h-23.853v3.898l-30.245,2.183v35.39
	h-37.261v-22.918h-4.833v7.016h-6.392v-7.483h-19.644v16.526h-6.86v7.639h-27.595v11.849h-41.003v3.586h-52.852v-7.951h-14.655
	v-13.252h-7.951v13.252h-22.294v8.887h-13.564v8.731l-14.187-0.935l-0.624-11.849l-177.107-9.51l-0.112,186.055H2582.521z"/>
</svg>
