<svg fill="none" xmlns="http://www.w3.org/2000/svg" viewBox="0 0 115 21">
  <rect x="25" width="90" height="21" rx="4" fill="#E08565"/>
  <rect y=".032" width="20.738" height="20.738" rx="4" fill="#E08565"/>
  <path d="M17.677 8.68V5.87h-1.974a.792.792 0 0 1-.792-.793V3.105H5.836v1.976a.792.792 0 0 1-.791.793H3.066v9.098h1.979c.437 0 .791.354.791.793v1.983h9.075v-1.983c0-.439.354-.793.792-.793h1.974v-2.81h-2.804v1.983a.792.792 0 0 1-.79.793h-7.42a.792.792 0 0 1-.792-.793V6.708c0-.438.354-.793.791-.793h7.42c.437 0 .791.355.791.793V8.68h2.804Z" fill="#000"/>
  <path fill="#E08565" d="M20.327 7.219h5.133v5.133h-5.133z"/>
  <path d="M22.894 7.219c-1.807 0-2.19-1.78-2.156-2.67l-.924 1.438v2.155h3.08V7.22ZM22.894 12.249c-1.807 0-2.19 1.78-2.156 2.67l-.924-1.438v-2.156h3.08v.924ZM23.202 7.219c1.806 0 2.19-1.78 2.155-2.67l.925 1.438v2.155h-3.08V7.22ZM23.202 12.249c1.806 0 2.19 1.78 2.155 2.67l.925-1.438v-2.156h-3.08v.924Z" fill="#E08565"/>
  <path d="M32.362 4.258h2.61l4.008 11.476h.038l4.008-11.476h2.609v13.457h-1.746V9.14c0-.769.02-1.538.02-2.307h-.038l-3.856 10.882H37.98L34.125 6.833h-.038c0 .77.02 1.538.02 2.307v8.575h-1.746V4.258h.002ZM47.38 12.43c0-3.557 2.32-5.576 5.236-5.576 2.915 0 5.236 2.019 5.236 5.575s-2.321 5.575-5.236 5.575c-2.915 0-5.237-2.019-5.237-5.575Zm5.236 4.074c1.918 0 3.433-1.384 3.433-4.075 0-2.691-1.515-4.075-3.433-4.075s-3.433 1.384-3.433 4.075c0 2.691 1.515 4.075 3.433 4.075ZM59.349 7.143h1.688v1.98h.038c.633-1.404 1.86-2.269 3.49-2.269 2.226 0 3.569 1.596 3.569 4.518v6.344h-1.727v-6.172c0-2.287-.997-3.152-2.377-3.152-1.497 0-2.953 1.038-2.953 3.595v5.729H59.35V7.143h-.001ZM71.14 14.928V8.68h-2.11V7.144h2.11V4.259h1.727v2.884h3.338V8.68h-3.338v6.247c0 .903.46 1.25 1.266 1.25h2.168v1.538h-2.36c-1.841 0-2.8-.923-2.8-2.788ZM77.435 7.143h1.688v1.846h.038c.499-1.116 1.075-1.846 2.761-1.846h1.017V8.68h-1.247c-1.764 0-2.531 1.058-2.531 3.076v5.96h-1.726V7.143ZM83.065 12.43c0-3.403 2.11-5.576 5.14-5.576 2.84 0 5.007 1.885 5.007 5.018v1.134h-8.324c.134 1.98 1.343 3.498 3.357 3.498 1.458 0 2.59-.788 3.01-2.038h1.861c-.441 2.077-2.36 3.537-4.871 3.537-3.107 0-5.179-2.211-5.179-5.575l-.001.001Zm8.343-.904c0-1.884-1.189-3.172-3.145-3.172s-3.107 1.384-3.337 3.172h6.483Zm-2.531-8.42h1.918L88.877 5.93h-1.535l1.535-2.825ZM97.68 18.004c-2.014 0-3.606-1.153-3.606-3.344 0-2.383 1.918-3.306 4.008-3.306h1.668c1.055 0 1.592-.443 1.592-1.27 0-1.153-1.054-1.73-2.377-1.73-1.555 0-2.648.789-2.762 2.21h-1.726c.154-2.248 1.63-3.71 4.488-3.71 2.857 0 4.104 1.518 4.104 3.595v5.056c0 .5.172.673.671.673h.48v1.538h-1.132c-1.016 0-1.65-.615-1.65-1.576v-.615h-.038c-.671 1.692-2.052 2.479-3.72 2.479Zm.326-1.5c1.746 0 3.336-1.153 3.336-3.632V11.68h-.038c-.363.769-1.035 1.153-2.321 1.153h-.863c-1.65 0-2.244.865-2.244 1.827 0 .96.614 1.846 2.13 1.846v-.002ZM105.476 2.701h1.726v15.015h-1.726V2.7Z" fill="#000"/>
</svg>